# xmcd
#
# Track frame offsets:
#	150
#	18389
#	32806
#	45591
#	61081
#	76838
#	93565
#	110009
#	123119
#	137304
#	152292
#
# Disc length: 2219
#
# Revision: 1
# Processed by: cddbd v1.5.1PL0 Copyright (c) Steve Scherf et al.
# Submitted via: EasyCDDAExtractor 7.5.0.1
# Normalized: r0:DSETVAR1
#
DISCID=7808a90b
DTITLE=Various Artist - CDX 359
DYEAR=2004
DGENRE=Country
TTITLE0=Kenny Chesney - Anything But Mine
TTITLE1=Sawyer Brown - Mision Temple Fireworks Stand
TTITLE2=Blue County - Nothin' But Cowboy Boots
TTITLE3=Trace Adkins - Songs About me
TTITLE4=Elbert West - Kimberly Cooper's Eyes
TTITLE5=Billy Chernoff - Hard Living Cowboy
TTITLE6=Uncle Donny Richmond - The World Keeps Loving Elvis
TTITLE7=Lucky Shy - Tonight Was Made For The Two Of Us
TTITLE8=Gerald Smith - You Play Like Chet
TTITLE9=Wood Newton - Bubba's In Bagdad
TTITLE10=Carl Angel - Leaves On Vine
EXTD=
EXTT0=
EXTT1=
EXTT2=
EXTT3=
EXTT4=
EXTT5=
EXTT6=
EXTT7=
EXTT8=
EXTT9=
EXTT10=
PLAYORDER=
